<?xml version="1.0" standalone="no"?>
<!DOCTYPE svg PUBLIC "-//W3C//DTD SVG 20010904//EN"
 "http://www.w3.org/TR/2001/REC-SVG-20010904/DTD/svg10.dtd">
<svg version="1.0" xmlns="http://www.w3.org/2000/svg"
 width="612.000000pt" height="612.000000pt" viewBox="0 0 612.000000 612.000000"
 preserveAspectRatio="xMidYMid meet">
<metadata>
Created by potrace 1.14, written by Peter Selinger 2001-2017
</metadata>
<g transform="translate(0.000000,612.000000) scale(0.100000,-0.100000)"
fill="#000000" stroke="none">
<path d="M4168 4646 c-204 -72 -402 -291 -567 -628 -60 -123 -161 -371 -161
-395 0 -4 -62 -9 -137 -9 -159 -2 -356 -27 -640 -84 -109 -21 -198 -38 -199
-37 0 1 -36 52 -79 112 -115 162 -203 264 -349 410 -193 192 -334 292 -508
357 -77 29 -93 32 -208 32 -108 0 -133 -3 -183 -23 -76 -30 -134 -75 -174
-135 -48 -71 -58 -115 -57 -256 0 -104 5 -142 29 -230 49 -182 110 -332 275
-680 127 -268 144 -309 170 -405 11 -43 27 -90 35 -104 13 -26 72 -83 107
-106 15 -9 14 -20 -2 -120 -11 -60 -19 -127 -20 -147 0 -35 -4 -39 -60 -69
-156 -83 -235 -223 -275 -491 l-6 -38 -175 0 c-102 0 -183 -4 -195 -10 -26
-14 -26 -66 0 -80 12 -6 132 -10 318 -10 279 0 301 -1 338 -20 43 -22 144 -27
190 -10 19 7 39 6 76 -6 36 -12 67 -15 117 -10 37 4 106 6 154 6 68 -1 97 3
134 19 46 21 57 21 929 21 872 0 883 0 929 -21 37 -16 66 -20 134 -19 48 0
117 -2 154 -6 49 -5 79 -2 116 10 37 13 56 14 76 6 46 -17 142 -12 186 10 37
19 59 20 363 20 238 0 326 3 335 12 16 16 15 65 0 75 -7 4 -103 10 -212 13
l-200 5 -12 85 c-24 166 -80 286 -172 372 -40 38 -118 83 -173 101 -11 3 -20
27 -28 69 -7 34 -26 103 -42 151 l-29 88 29 25 c43 36 87 107 121 196 28 71
30 84 19 116 -18 53 -6 143 60 477 81 407 92 481 98 690 4 144 2 198 -12 270
-26 139 -75 239 -155 313 -110 104 -310 142 -462 88z m293 -96 c111 -41 186
-137 225 -285 14 -55 18 -107 18 -240 -1 -204 -20 -348 -101 -735 -49 -235
-56 -281 -59 -407 -3 -155 -12 -188 -73 -277 -28 -41 -34 -44 -64 -39 -23 3
-37 0 -47 -12 -16 -19 -14 -27 44 -190 19 -55 38 -117 42 -137 l6 -38 -99 0
c-227 0 -406 -97 -488 -263 -52 -107 -61 -208 -29 -309 5 -17 -5 -18 -117 -18
l-122 0 20 23 c51 55 58 111 17 129 -24 11 -29 10 -48 -16 -89 -117 -142 -136
-388 -136 l-169 0 -16 38 c-9 20 -18 67 -21 103 l-4 66 31 12 c92 39 191 227
178 340 -18 161 -324 204 -505 70 -47 -35 -82 -93 -82 -137 0 -81 115 -222
223 -273 l64 -30 6 -72 c3 -40 9 -82 12 -95 l7 -22 -340 0 -340 0 15 43 c10
28 14 67 11 119 -4 64 -11 90 -42 153 -93 189 -264 280 -513 273 -62 -1 -114
1 -114 5 -4 19 14 151 32 240 11 55 17 107 14 117 -8 26 -37 33 -70 18 -25
-11 -29 -10 -56 20 -16 17 -31 44 -35 59 -26 121 -48 175 -244 593 -267 569
-314 856 -163 995 83 76 242 102 378 61 267 -80 582 -361 884 -789 46 -64 88
-117 95 -117 6 0 86 15 176 34 355 75 579 102 762 93 86 -4 120 -2 127 7 6 7
27 59 47 117 172 497 434 856 675 924 69 19 166 13 240 -15z m-2576 -2465 c85
-23 151 -62 206 -124 66 -74 92 -144 87 -238 -4 -79 -20 -111 -76 -149 -29
-20 -99 -40 -108 -32 -1 2 4 27 12 55 8 29 14 73 12 100 -3 48 -3 48 -38 48
l-35 0 -12 -70 c-7 -38 -21 -81 -31 -95 -25 -33 -82 -52 -130 -42 -32 7 -37
12 -34 33 15 139 14 174 -6 199 -17 22 -23 23 -46 12 -25 -11 -26 -15 -26 -87
0 -97 -16 -130 -70 -146 -30 -9 -49 -9 -78 -1 -51 15 -78 47 -93 107 -7 28
-17 56 -22 63 -23 31 -83 -3 -73 -42 2 -12 8 -38 12 -59 l6 -38 -47 3 -47 3 6
58 c20 198 114 363 234 414 101 44 286 57 397 28z m2678 -15 c149 -56 226
-169 263 -382 17 -102 16 -106 -44 -104 -32 1 -36 4 -32 21 11 49 5 108 -12
119 -28 17 -51 -4 -65 -60 -17 -66 -42 -96 -93 -113 -38 -12 -50 -12 -84 0
-53 18 -70 53 -71 147 0 53 -4 75 -15 82 -22 14 -36 12 -54 -6 -19 -18 -22
-146 -6 -190 14 -36 3 -46 -57 -47 -86 -3 -125 34 -138 128 -11 80 -14 85 -45
85 -19 0 -33 -7 -40 -20 -13 -24 -5 -98 16 -147 17 -42 5 -49 -52 -33 -74 21
-134 106 -134 191 0 39 29 128 55 170 52 82 140 144 246 174 82 23 285 15 362
-15z"/>
<path d="M4230 4463 c-160 -80 -391 -415 -495 -718 -32 -91 -39 -128 -43 -212
-4 -90 -2 -107 18 -147 12 -26 38 -59 58 -74 84 -64 303 -335 436 -539 37 -56
75 -105 86 -108 24 -8 75 18 94 48 8 12 23 49 34 82 19 56 28 112 83 503 11
84 32 192 45 240 133 477 118 749 -49 886 -89 73 -174 85 -267 39z m185 -101
c141 -98 161 -363 54 -727 -37 -126 -51 -205 -89 -489 -31 -236 -57 -363 -70
-349 -4 4 -34 46 -65 93 -107 157 -245 329 -349 434 -115 117 -123 135 -107
238 20 122 49 203 122 350 137 274 344 502 439 482 14 -3 43 -17 65 -32z"/>
<path d="M1192 4193 c-19 -9 -44 -35 -60 -62 -24 -41 -27 -55 -26 -136 2 -147
52 -303 212 -660 127 -285 170 -392 198 -496 32 -119 64 -168 109 -169 35 0
63 28 81 83 57 175 177 351 320 468 39 32 79 74 88 93 22 46 20 131 -4 201
-77 225 -462 588 -715 675 -70 24 -158 26 -203 3z m159 -93 c126 -39 302 -164
461 -326 138 -140 220 -277 221 -367 1 -48 -1 -52 -44 -86 -138 -109 -276
-288 -334 -431 l-29 -72 -12 38 c-6 22 -21 68 -32 104 -11 36 -69 173 -127
305 -161 361 -214 497 -241 625 -30 143 -8 225 62 229 7 1 40 -8 75 -19z"/>
<path d="M3423 2821 c-43 -20 -86 -74 -99 -124 -11 -48 5 -115 38 -153 42 -48
78 -64 140 -64 105 0 178 73 178 178 0 138 -130 220 -257 163z m182 -71 c28
-31 10 -74 -32 -78 -25 -3 -35 2 -49 22 -15 24 -15 28 0 51 20 31 56 33 81 5z"/>
<path d="M2310 2709 c-53 -16 -86 -45 -110 -95 -74 -151 74 -313 227 -249 48
20 71 41 94 87 26 51 24 115 -4 169 -38 71 -130 110 -207 88z m150 -79 c11
-11 20 -27 20 -35 0 -8 -9 -24 -20 -35 -11 -11 -27 -20 -35 -20 -8 0 -24 9
-35 20 -11 11 -20 27 -20 35 0 8 9 24 20 35 11 11 27 20 35 20 8 0 24 -9 35
-20z"/>
</g>
</svg>
